<?xml version="1.0" encoding="UTF-8" standalone="no"?><svg xmlns="http://www.w3.org/2000/svg" xmlns:xlink="http://www.w3.org/1999/xlink" contentScriptType="application/ecmascript" contentStyleType="text/css" height="393px" preserveAspectRatio="none" style="width:549px;height:393px;" version="1.1" viewBox="0 0 549 393" width="549px" zoomAndPan="magnify"><defs><filter height="300%" id="fuq6h9w8giqcm" width="300%" x="-1" y="-1"><feGaussianBlur result="blurOut" stdDeviation="2.0"/><feColorMatrix in="blurOut" result="blurOut2" type="matrix" values="0 0 0 0 0 0 0 0 0 0 0 0 0 0 0 0 0 0 .4 0"/><feOffset dx="4.0" dy="4.0" in="blurOut2" result="blurOut3"/><feBlend in="SourceGraphic" in2="blurOut3" mode="normal"/></filter></defs><g><rect fill="#FEFECE" filter="url(#fuq6h9w8giqcm)" height="33.9688" style="stroke: #A80036; stroke-width: 1.5;" width="43" x="167.5" y="8"/><text fill="#000000" font-family="sans-serif" font-size="12" lengthAdjust="spacingAndGlyphs" textLength="29" x="174.5" y="21.1387">Alice</text><line style="stroke: #A80036; stroke-width: 1.5;" x1="168.5" x2="209.5" y1="25.9688" y2="25.9688"/><rect fill="#FEFECE" filter="url(#fuq6h9w8giqcm)" height="33.9688" style="stroke: #A80036; stroke-width: 1.5;" width="38" x="253" y="8"/><text fill="#000000" font-family="sans-serif" font-size="12" lengthAdjust="spacingAndGlyphs" textLength="24" x="260" y="21.1387">Bob</text><line style="stroke: #A80036; stroke-width: 1.5;" x1="254" x2="290" y1="25.9688" y2="25.9688"/><rect fill="#FEFECE" filter="url(#fuq6h9w8giqcm)" height="33.9688" style="stroke: #A80036; stroke-width: 1.5;" width="46" x="332" y="8"/><text fill="#000000" font-family="sans-serif" font-size="12" lengthAdjust="spacingAndGlyphs" textLength="32" x="339" y="21.1387">Chad</text><line style="stroke: #A80036; stroke-width: 1.5;" x1="333" x2="377" y1="25.9688" y2="25.9688"/><rect fill="#FEFECE" filter="url(#fuq6h9w8giqcm)" height="33.9688" style="stroke: #A80036; stroke-width: 1.5;" width="77" x="233.5" y="119"/><text fill="#000000" font-family="sans-serif" font-size="12" lengthAdjust="spacingAndGlyphs" textLength="63" x="240.5" y="132.1387">Cloudflare</text><line style="stroke: #A80036; stroke-width: 1.5;" x1="234.5" x2="309.5" y1="136.9688" y2="136.9688"/><rect fill="#FEFECE" filter="url(#fuq6h9w8giqcm)" height="37.6094" style="stroke: #A80036; stroke-width: 1.5;" width="98" x="223" y="230"/><text fill="#000000" font-family="sans-serif" font-size="12" lengthAdjust="spacingAndGlyphs" textLength="84" x="230" y="243.1387">NginxPort443</text><line style="stroke: #A80036; stroke-width: 1.5;" x1="224" x2="320" y1="247.9688" y2="247.9688"/><text fill="#000000" font-family="sans-serif" font-size="10" lengthAdjust="spacingAndGlyphs" textLength="70" x="229" y="261.251">Debian Server</text><rect fill="#FEFECE" filter="url(#fuq6h9w8giqcm)" height="37.6094" style="stroke: #A80036; stroke-width: 1.5;" width="154" x="6" y="345"/><text fill="#000000" font-family="sans-serif" font-size="12" lengthAdjust="spacingAndGlyphs" textLength="140" x="13" y="358.1387">HunchentootPort8080</text><line style="stroke: #A80036; stroke-width: 1.5;" x1="7" x2="159" y1="362.9688" y2="362.9688"/><text fill="#000000" font-family="sans-serif" font-size="10" lengthAdjust="spacingAndGlyphs" textLength="70" x="12" y="376.251">Debian Server</text><rect fill="#FEFECE" filter="url(#fuq6h9w8giqcm)" height="37.6094" style="stroke: #A80036; stroke-width: 1.5;" width="154" x="195" y="345"/><text fill="#000000" font-family="sans-serif" font-size="12" lengthAdjust="spacingAndGlyphs" textLength="140" x="202" y="358.1387">HunchentootPort8081</text><line style="stroke: #A80036; stroke-width: 1.5;" x1="196" x2="348" y1="362.9688" y2="362.9688"/><text fill="#000000" font-family="sans-serif" font-size="10" lengthAdjust="spacingAndGlyphs" textLength="70" x="201" y="376.251">Debian Server</text><rect fill="#FEFECE" filter="url(#fuq6h9w8giqcm)" height="37.6094" style="stroke: #A80036; stroke-width: 1.5;" width="154" x="384" y="345"/><text fill="#000000" font-family="sans-serif" font-size="12" lengthAdjust="spacingAndGlyphs" textLength="140" x="391" y="358.1387">HunchentootPort8082</text><line style="stroke: #A80036; stroke-width: 1.5;" x1="385" x2="537" y1="362.9688" y2="362.9688"/><text fill="#000000" font-family="sans-serif" font-size="10" lengthAdjust="spacingAndGlyphs" textLength="70" x="390" y="376.251">Debian Server</text><!--MD5=[a3f0aa6dfd7204e60ae6324fef77b389]
link Alice to Cloudflare--><path d="M193.87,42.09 C198.43,55.5 206.19,74.67 217,89 C224.54,99 234.65,108.25 244.15,115.79 " fill="none" id="Alice-&gt;Cloudflare" style="stroke: #A80036; stroke-width: 1.0;"/><polygon fill="#A80036" points="248.17,118.91,243.5281,110.2236,244.2255,115.8373,238.6119,116.5348,248.17,118.91" style="stroke: #A80036; stroke-width: 1.0;"/><text fill="#000000" font-family="sans-serif" font-size="13" lengthAdjust="spacingAndGlyphs" textLength="41" x="218" y="85.0669">HTTPS</text><!--MD5=[805df1d668cd2aab2ca4b83ef4d03d46]
link Bob to Cloudflare--><path d="M270.53,42.05 C269.53,54.78 268.48,73.02 269,89 C269.26,97.06 269.78,105.9 270.32,113.66 " fill="none" id="Bob-&gt;Cloudflare" style="stroke: #A80036; stroke-width: 1.0;"/><polygon fill="#A80036" points="270.69,118.83,274.0367,109.5672,270.3327,113.8428,266.0572,110.1388,270.69,118.83" style="stroke: #A80036; stroke-width: 1.0;"/><text fill="#000000" font-family="sans-serif" font-size="13" lengthAdjust="spacingAndGlyphs" textLength="41" x="270" y="85.0669">HTTPS</text><!--MD5=[1fb6e5770414b066907f623b303fa2b7]
link Chad to Cloudflare--><path d="M346.26,42.14 C338.87,55.24 327.65,73.95 316,89 C309.02,98.01 300.53,107.23 292.87,115.02 " fill="none" id="Chad-&gt;Cloudflare" style="stroke: #A80036; stroke-width: 1.0;"/><polygon fill="#A80036" points="289.19,118.73,298.368,115.1573,292.7112,115.1802,292.6883,109.5234,289.19,118.73" style="stroke: #A80036; stroke-width: 1.0;"/><text fill="#000000" font-family="sans-serif" font-size="13" lengthAdjust="spacingAndGlyphs" textLength="41" x="328" y="85.0669">HTTPS</text><!--MD5=[b1d35e5d95f25cb9e18d0036d5403355]
link Cloudflare to NginxPort443--><path d="M272,153.38 C272,172.17 272,203.13 272,224.49 " fill="none" id="Cloudflare-&gt;NginxPort443" style="stroke: #A80036; stroke-width: 1.0;"/><polygon fill="#A80036" points="272,229.71,276,220.71,272,224.71,268,220.71,272,229.71" style="stroke: #A80036; stroke-width: 1.0;"/><text fill="#000000" font-family="sans-serif" font-size="13" lengthAdjust="spacingAndGlyphs" textLength="41" x="273" y="196.0669">HTTPS</text><!--MD5=[02f21c9a9874109c0a0ce9a93e4728b1]
link NginxPort443 to HunchentootPort8080--><path d="M241.63,268.16 C207.88,288.34 153.46,320.88 117.95,342.1 " fill="none" id="NginxPort443-&gt;HunchentootPort8080" style="stroke: #A80036; stroke-width: 1.0;"/><polygon fill="#A80036" points="113.29,344.89,123.0672,343.7039,117.5812,342.3238,118.9613,336.8379,113.29,344.89" style="stroke: #A80036; stroke-width: 1.0;"/><text fill="#000000" font-family="sans-serif" font-size="13" lengthAdjust="spacingAndGlyphs" textLength="32" x="190" y="311.0669">HTTP</text><!--MD5=[93b92ea7c3e513d4d7462931c2caa39e]
link NginxPort443 to HunchentootPort8081--><path d="M272,268.16 C272,287.6 272,318.5 272,339.72 " fill="none" id="NginxPort443-&gt;HunchentootPort8081" style="stroke: #A80036; stroke-width: 1.0;"/><polygon fill="#A80036" points="272,344.89,276,335.89,272,339.89,268,335.89,272,344.89" style="stroke: #A80036; stroke-width: 1.0;"/><text fill="#000000" font-family="sans-serif" font-size="13" lengthAdjust="spacingAndGlyphs" textLength="32" x="273" y="311.0669">HTTP</text><!--MD5=[bf61efd4a7695e2443b34c55ef3b42d9]
link NginxPort443 to HunchentootPort8082--><path d="M302.37,268.16 C336.12,288.34 390.54,320.88 426.05,342.1 " fill="none" id="NginxPort443-&gt;HunchentootPort8082" style="stroke: #A80036; stroke-width: 1.0;"/><polygon fill="#A80036" points="430.71,344.89,425.0387,336.8379,426.4188,342.3238,420.9328,343.7039,430.71,344.89" style="stroke: #A80036; stroke-width: 1.0;"/><text fill="#000000" font-family="sans-serif" font-size="13" lengthAdjust="spacingAndGlyphs" textLength="32" x="378" y="311.0669">HTTP</text><!--MD5=[29c2dd2d1948c612064b6b9e5250a557]
@startuml
object Alice
object Bob
object Chad
object Cloudflare
object NginxPort443
NginxPort443 : Debian Server
object HunchentootPort8080
HunchentootPort8080 : Debian Server
object HunchentootPort8081
HunchentootPort8081 : Debian Server
object HunchentootPort8082
HunchentootPort8082 : Debian Server

Alice  - -> Cloudflare : HTTPS
Bob - -> Cloudflare : HTTPS
Chad - -> Cloudflare : HTTPS
Cloudflare - -> NginxPort443 : HTTPS
NginxPort443 - -> HunchentootPort8080 : HTTP
NginxPort443 - -> HunchentootPort8081 : HTTP
NginxPort443 - -> HunchentootPort8082 : HTTP
@enduml

PlantUML version 1.2020.02(Sun Mar 01 05:22:07 EST 2020)
(GPL source distribution)
Java Runtime: OpenJDK Runtime Environment
JVM: OpenJDK 64-Bit Server VM
Java Version: 11.0.15+10-post-Debian-1deb11u1
Operating System: Linux
Default Encoding: UTF-8
Language: en
Country: US
--></g></svg>